<svg width="141" height="140" viewBox="0 0 141 140" fill="none" xmlns="http://www.w3.org/2000/svg">
<path d="M59.1194 95.9296C64.6344 95.0511 69.8535 95.9471 73.7495 97.7534C77.7683 99.6168 79.8583 102.164 80.1887 104.238C80.4974 106.176 79.3864 108.712 76.1003 111.245C72.9002 113.711 68.0909 115.765 62.4227 116.668C56.7546 117.571 51.5451 117.113 47.7372 115.763C43.8268 114.377 41.9829 112.311 41.6742 110.373C41.3439 108.299 42.5389 105.228 45.7799 102.209C48.9218 99.2812 53.6043 96.8081 59.1194 95.9296Z" fill="#FFD743" stroke="#12100D" stroke-width="5"/>
<path d="M69.5485 107.135C74.0894 103.884 79.1588 102.353 83.4513 102.228C87.8791 102.098 90.8874 103.443 92.1098 105.151C93.2522 106.747 93.3918 109.512 91.5841 113.246C89.8236 116.882 86.4394 120.869 81.7724 124.21C77.1053 127.551 72.2403 129.47 68.2305 129.964C64.1128 130.472 61.5403 129.448 60.398 127.852C59.1756 126.145 58.8721 122.864 60.4218 118.714C61.9241 114.691 65.0076 110.386 69.5485 107.135Z" fill="#FFD743" stroke="#12100D" stroke-width="5"/>
<path d="M91.9168 99.1792C94.3424 102.567 91.0908 109.049 84.6543 113.657C78.2178 118.265 71.0337 119.253 68.6082 115.865C66.1827 112.477 68.6867 104.951 75.1232 100.343C81.5597 95.7353 89.4913 95.791 91.9168 99.1792Z" fill="#C3A534"/>
<path d="M69.344 107.839C73.8849 104.588 78.9542 103.057 83.2468 102.932C87.6746 102.802 90.6829 104.147 91.9053 105.855C93.0476 107.451 93.1873 110.216 91.3795 113.95C89.6191 117.586 86.2349 121.573 81.5678 124.914C76.9008 128.255 72.0357 130.174 68.026 130.668C63.9083 131.176 61.3358 130.152 60.1934 128.556C58.9711 126.849 58.6676 123.568 60.2172 119.418C61.7196 115.395 64.803 111.089 69.344 107.839Z" stroke="#12100D" stroke-width="5"/>
<path d="M73.5 27.5C91.6053 27.5 107.968 33.451 119.762 42.0029C131.641 50.6165 138.5 61.5509 138.5 71.3721C138.5 81.0646 131.791 90.294 119.964 97.2373C108.196 104.146 91.7738 108.5 73.5 108.5C55.2262 108.5 38.8045 104.146 27.0361 97.2373C15.2092 90.294 8.5 81.0646 8.5 71.3721C8.50022 61.5509 15.3594 50.6165 27.2383 42.0029C39.0323 33.451 55.3947 27.5 73.5 27.5Z" fill="#C5AD8E" stroke="#12100D" stroke-width="5"/>
<path d="M124 67.3627C124 85.9401 98.7041 101 67.5 101C36.2959 101 11 85.9401 11 67.3627C11 48.7854 36.2959 28 67.5 28C98.7041 28 124 48.7854 124 67.3627Z" fill="#FFFFEA"/>
<path d="M73.5 27.5C91.6053 27.5 107.968 33.451 119.762 42.0029C131.641 50.6165 138.5 61.5509 138.5 71.3721C138.5 81.0646 131.791 90.294 119.964 97.2373C108.196 104.146 91.7738 108.5 73.5 108.5C55.2262 108.5 38.8045 104.146 27.0361 97.2373C15.2092 90.294 8.5 81.0646 8.5 71.3721C8.50022 61.5509 15.3594 50.6165 27.2383 42.0029C39.0323 33.451 55.3947 27.5 73.5 27.5Z" stroke="#12100D" stroke-width="5"/>
<path d="M44 2.5C53.7084 2.5 62.593 6.98296 69.0859 13.5957C75.6008 20.2308 79.5 28.7964 79.5 36.667C79.4998 52.1615 64.0788 65.5 44 65.5C23.9212 65.5 8.50022 52.1615 8.5 36.667C8.5 28.7964 12.3992 20.2308 18.9141 13.5957C25.407 6.98296 34.2916 2.5 44 2.5Z" fill="#FFFFEA" stroke="#12100D" stroke-width="5"/>
<ellipse cx="40" cy="31" rx="5" ry="8" fill="#12100D"/>
<ellipse cx="26" cy="29" rx="5" ry="8" fill="#12100D"/>
<path d="M22 42.5C27.5846 42.5 32.5978 44.2058 36.1611 46.6025C39.8368 49.0748 41.5 51.9195 41.5 54.0195C41.5 55.982 40.004 58.3117 36.3604 60.2959C32.8122 62.228 27.7396 63.5 22 63.5C16.2604 63.5 11.1878 62.228 7.63965 60.2959C3.99602 58.3117 2.5 55.982 2.5 54.0195C2.50004 51.9195 4.16325 49.0748 7.83887 46.6025C11.4022 44.2058 16.4154 42.5 22 42.5Z" fill="#FFD743" stroke="#12100D" stroke-width="5"/>
<ellipse cx="52.5" cy="40.5" rx="8.5" ry="3.5" fill="#FFD5D5"/>
</svg>
